<svg id="visual" viewBox="0 0 1920 1080" width="1920" height="1080" xmlns="http://www.w3.org/2000/svg" xmlns:xlink="http://www.w3.org/1999/xlink" version="1.1"><path d="M0 977L21.3 974.5C42.7 972 85.3 967 128 921.3C170.7 875.7 213.3 789.3 256 740.2C298.7 691 341.3 679 384 672.7C426.7 666.3 469.3 665.7 512 708.7C554.7 751.7 597.3 838.3 640 853.8C682.7 869.3 725.3 813.7 768 813.7C810.7 813.7 853.3 869.3 896 884.2C938.7 899 981.3 873 1024 830.7C1066.7 788.3 1109.3 729.7 1152 693.7C1194.7 657.7 1237.3 644.3 1280 698.8C1322.7 753.3 1365.3 875.7 1408 905C1450.7 934.3 1493.3 870.7 1536 848.8C1578.7 827 1621.3 847 1664 879.2C1706.7 911.3 1749.3 955.7 1792 924C1834.7 892.3 1877.3 784.7 1898.7 730.8L1920 677L1920 1081L1898.7 1081C1877.3 1081 1834.7 1081 1792 1081C1749.3 1081 1706.7 1081 1664 1081C1621.3 1081 1578.7 1081 1536 1081C1493.3 1081 1450.7 1081 1408 1081C1365.3 1081 1322.7 1081 1280 1081C1237.3 1081 1194.7 1081 1152 1081C1109.3 1081 1066.7 1081 1024 1081C981.3 1081 938.7 1081 896 1081C853.3 1081 810.7 1081 768 1081C725.3 1081 682.7 1081 640 1081C597.3 1081 554.7 1081 512 1081C469.3 1081 426.7 1081 384 1081C341.3 1081 298.7 1081 256 1081C213.3 1081 170.7 1081 128 1081C85.3 1081 42.7 1081 21.3 1081L0 1081Z" fill="#DB924B" stroke-linecap="round" stroke-linejoin="miter"></path></svg>