<svg id="visual" viewBox="0 0 900 900" width="900" height="900" xmlns="http://www.w3.org/2000/svg" xmlns:xlink="http://www.w3.org/1999/xlink" version="1.1"><g transform="translate(454.69858232556896 439.13519009043443)"><path d="M176.3 -321.4C216.9 -281.9 230.2 -211.2 271.3 -152.5C312.4 -93.8 381.2 -46.9 395.9 8.5C410.6 63.8 371.1 127.7 322.9 174C274.6 220.3 217.6 249.2 162.3 291.6C107 334 53.5 390 -1.5 392.6C-56.5 395.2 -113 344.4 -165.1 300.1C-217.2 255.9 -264.9 218.2 -310.3 169.3C-355.8 120.3 -398.9 60.2 -407 -4.7C-415 -69.5 -388.1 -139 -349.1 -199C-310.1 -259.1 -259 -309.7 -198.9 -337.9C-138.7 -366.2 -69.3 -372.1 -0.8 -370.8C67.8 -369.5 135.7 -361 176.3 -321.4" fill="#DB924B"></path></g></svg>