<svg id="visual" viewBox="0 0 1920 1080" width="1920" height="1080" xmlns="http://www.w3.org/2000/svg" xmlns:xlink="http://www.w3.org/1999/xlink" version="1.1"><path d="M0 861L45.7 842C91.3 823 182.7 785 274.2 785.5C365.7 786 457.3 825 548.8 820.3C640.3 815.7 731.7 767.3 823 771.3C914.3 775.3 1005.7 831.7 1097 857.5C1188.3 883.3 1279.7 878.7 1371.2 864.3C1462.7 850 1554.3 826 1645.8 808.7C1737.3 791.3 1828.7 780.7 1874.3 775.3L1920 770L1920 1081L1874.3 1081C1828.7 1081 1737.3 1081 1645.8 1081C1554.3 1081 1462.7 1081 1371.2 1081C1279.7 1081 1188.3 1081 1097 1081C1005.7 1081 914.3 1081 823 1081C731.7 1081 640.3 1081 548.8 1081C457.3 1081 365.7 1081 274.2 1081C182.7 1081 91.3 1081 45.7 1081L0 1081Z" fill="#DB924B" stroke-linecap="round" stroke-linejoin="miter"></path></svg>