<svg id="visual" viewBox="0 0 1920 1080" width="1920" height="1080" xmlns="http://www.w3.org/2000/svg" xmlns:xlink="http://www.w3.org/1999/xlink" version="1.1"><path d="M0 748L45.7 745C91.3 742 182.7 736 274.2 762.5C365.7 789 457.3 848 548.8 879.7C640.3 911.3 731.7 915.7 823 886.8C914.3 858 1005.7 796 1097 787.5C1188.3 779 1279.7 824 1371.2 848.5C1462.7 873 1554.3 877 1645.8 846.8C1737.3 816.7 1828.7 752.3 1874.3 720.2L1920 688L1920 1081L1874.3 1081C1828.7 1081 1737.3 1081 1645.8 1081C1554.3 1081 1462.7 1081 1371.2 1081C1279.7 1081 1188.3 1081 1097 1081C1005.7 1081 914.3 1081 823 1081C731.7 1081 640.3 1081 548.8 1081C457.3 1081 365.7 1081 274.2 1081C182.7 1081 91.3 1081 45.7 1081L0 1081Z" fill="#DB924B" stroke-linecap="round" stroke-linejoin="miter"></path></svg>