<svg id="visual" viewBox="0 0 1920 1080" width="1920" height="1080" xmlns="http://www.w3.org/2000/svg" xmlns:xlink="http://www.w3.org/1999/xlink" version="1.1"><path d="M0 865L45.7 866.8C91.3 868.7 182.7 872.3 274.2 852.2C365.7 832 457.3 788 548.8 795.3C640.3 802.7 731.7 861.3 823 889.7C914.3 918 1005.7 916 1097 882.8C1188.3 849.7 1279.7 785.3 1371.2 783.7C1462.7 782 1554.3 843 1645.8 851.5C1737.3 860 1828.7 816 1874.3 794L1920 772L1920 1081L1874.3 1081C1828.7 1081 1737.3 1081 1645.8 1081C1554.3 1081 1462.7 1081 1371.2 1081C1279.7 1081 1188.3 1081 1097 1081C1005.7 1081 914.3 1081 823 1081C731.7 1081 640.3 1081 548.8 1081C457.3 1081 365.7 1081 274.2 1081C182.7 1081 91.3 1081 45.7 1081L0 1081Z" fill="#DB924B" stroke-linecap="round" stroke-linejoin="miter"></path></svg>