<svg id="visual" viewBox="0 0 1920 1080" width="1920" height="1080" xmlns="http://www.w3.org/2000/svg" xmlns:xlink="http://www.w3.org/1999/xlink" version="1.1"><path d="M0 803L24.7 807.7C49.3 812.3 98.7 821.7 147.8 812.7C197 803.7 246 776.3 295.2 765C344.3 753.7 393.7 758.3 443 776.2C492.3 794 541.7 825 590.8 847.5C640 870 689 884 738.2 888.2C787.3 892.3 836.7 886.7 886 875C935.3 863.3 984.7 845.7 1034 845.3C1083.3 845 1132.7 862 1181.8 871.2C1231 880.3 1280 881.7 1329.2 862.2C1378.3 842.7 1427.7 802.3 1477 803.3C1526.3 804.3 1575.7 846.7 1624.8 866.3C1674 886 1723 883 1772.2 879C1821.3 875 1870.7 870 1895.3 867.5L1920 865L1920 1081L1895.3 1081C1870.7 1081 1821.3 1081 1772.2 1081C1723 1081 1674 1081 1624.8 1081C1575.7 1081 1526.3 1081 1477 1081C1427.7 1081 1378.3 1081 1329.2 1081C1280 1081 1231 1081 1181.8 1081C1132.7 1081 1083.3 1081 1034 1081C984.7 1081 935.3 1081 886 1081C836.7 1081 787.3 1081 738.2 1081C689 1081 640 1081 590.8 1081C541.7 1081 492.3 1081 443 1081C393.7 1081 344.3 1081 295.2 1081C246 1081 197 1081 147.8 1081C98.7 1081 49.3 1081 24.7 1081L0 1081Z" fill="#263E3F" stroke-linecap="round" stroke-linejoin="miter"></path></svg>