<svg id="visual" viewBox="0 0 1920 1080" width="1920" height="1080" xmlns="http://www.w3.org/2000/svg" xmlns:xlink="http://www.w3.org/1999/xlink" version="1.1"><path d="M0 789L24.7 799.7C49.3 810.3 98.7 831.7 147.8 844.7C197 857.7 246 862.3 295.2 862C344.3 861.7 393.7 856.3 443 843.5C492.3 830.7 541.7 810.3 590.8 787.5C640 764.7 689 739.3 738.2 755.5C787.3 771.7 836.7 829.3 886 844.3C935.3 859.3 984.7 831.7 1034 835.2C1083.3 838.7 1132.7 873.3 1181.8 859.2C1231 845 1280 782 1329.2 747.7C1378.3 713.3 1427.7 707.7 1477 737.8C1526.3 768 1575.7 834 1624.8 854.5C1674 875 1723 850 1772.2 828.2C1821.3 806.3 1870.7 787.7 1895.3 778.3L1920 769L1920 1081L1895.3 1081C1870.7 1081 1821.3 1081 1772.2 1081C1723 1081 1674 1081 1624.8 1081C1575.7 1081 1526.3 1081 1477 1081C1427.7 1081 1378.3 1081 1329.2 1081C1280 1081 1231 1081 1181.8 1081C1132.7 1081 1083.3 1081 1034 1081C984.7 1081 935.3 1081 886 1081C836.7 1081 787.3 1081 738.2 1081C689 1081 640 1081 590.8 1081C541.7 1081 492.3 1081 443 1081C393.7 1081 344.3 1081 295.2 1081C246 1081 197 1081 147.8 1081C98.7 1081 49.3 1081 24.7 1081L0 1081Z" fill="#10576D" stroke-linecap="round" stroke-linejoin="miter"></path></svg>