<svg id="visual" viewBox="0 0 1920 1080" width="1920" height="1080" xmlns="http://www.w3.org/2000/svg" xmlns:xlink="http://www.w3.org/1999/xlink" version="1.1"><path d="M0 870L24.7 864.5C49.3 859 98.7 848 147.8 846.2C197 844.3 246 851.7 295.2 847.5C344.3 843.3 393.7 827.7 443 818.7C492.3 809.7 541.7 807.3 590.8 816.2C640 825 689 845 738.2 848.8C787.3 852.7 836.7 840.3 886 823.5C935.3 806.7 984.7 785.3 1034 792.8C1083.3 800.3 1132.7 836.7 1181.8 836.2C1231 835.7 1280 798.3 1329.2 775.3C1378.3 752.3 1427.7 743.7 1477 759.8C1526.3 776 1575.7 817 1624.8 837.8C1674 858.7 1723 859.3 1772.2 865.2C1821.3 871 1870.7 882 1895.3 887.5L1920 893L1920 1081L1895.3 1081C1870.7 1081 1821.3 1081 1772.2 1081C1723 1081 1674 1081 1624.8 1081C1575.7 1081 1526.3 1081 1477 1081C1427.7 1081 1378.3 1081 1329.2 1081C1280 1081 1231 1081 1181.8 1081C1132.7 1081 1083.3 1081 1034 1081C984.7 1081 935.3 1081 886 1081C836.7 1081 787.3 1081 738.2 1081C689 1081 640 1081 590.8 1081C541.7 1081 492.3 1081 443 1081C393.7 1081 344.3 1081 295.2 1081C246 1081 197 1081 147.8 1081C98.7 1081 49.3 1081 24.7 1081L0 1081Z" fill="#20161F" stroke-linecap="round" stroke-linejoin="miter"></path></svg>