<svg id="visual" viewBox="0 0 1920 1080" width="1920" height="1080" xmlns="http://www.w3.org/2000/svg" xmlns:xlink="http://www.w3.org/1999/xlink" version="1.1"><path d="M0 71L18.8 65.5C37.7 60 75.3 49 113 49.5C150.7 50 188.3 62 226 63.3C263.7 64.7 301.3 55.3 339 52.2C376.7 49 414.3 52 452 51C489.7 50 527.3 45 565 43.8C602.7 42.7 640.3 45.3 678 47.2C715.7 49 753.3 50 791 49.7C828.7 49.3 866.3 47.7 903.8 47C941.3 46.3 978.7 46.7 1016.2 51C1053.7 55.3 1091.3 63.7 1129 63.3C1166.7 63 1204.3 54 1242 54C1279.7 54 1317.3 63 1355 61.2C1392.7 59.3 1430.3 46.7 1468 43.5C1505.7 40.3 1543.3 46.7 1581 47.8C1618.7 49 1656.3 45 1694 44.5C1731.7 44 1769.3 47 1807 46.2C1844.7 45.3 1882.3 40.7 1901.2 38.3L1920 36L1920 0L1901.2 0C1882.3 0 1844.7 0 1807 0C1769.3 0 1731.7 0 1694 0C1656.3 0 1618.7 0 1581 0C1543.3 0 1505.7 0 1468 0C1430.3 0 1392.7 0 1355 0C1317.3 0 1279.7 0 1242 0C1204.3 0 1166.7 0 1129 0C1091.3 0 1053.7 0 1016.2 0C978.7 0 941.3 0 903.8 0C866.3 0 828.7 0 791 0C753.3 0 715.7 0 678 0C640.3 0 602.7 0 565 0C527.3 0 489.7 0 452 0C414.3 0 376.7 0 339 0C301.3 0 263.7 0 226 0C188.3 0 150.7 0 113 0C75.3 0 37.7 0 18.8 0L0 0Z" fill="#DB924B" stroke-linecap="round" stroke-linejoin="miter"></path></svg>