<svg id="visual" viewBox="0 0 1920 1080" width="1920" height="1080" xmlns="http://www.w3.org/2000/svg" xmlns:xlink="http://www.w3.org/1999/xlink" version="1.1"><path d="M0 35L18.8 40.7C37.7 46.3 75.3 57.7 113 63.8C150.7 70 188.3 71 226 67.2C263.7 63.3 301.3 54.7 339 52.2C376.7 49.7 414.3 53.3 452 56.8C489.7 60.3 527.3 63.7 565 65C602.7 66.3 640.3 65.7 678 65.3C715.7 65 753.3 65 791 59.7C828.7 54.3 866.3 43.7 903.8 45C941.3 46.3 978.7 59.7 1016.2 63.2C1053.7 66.7 1091.3 60.3 1129 59.2C1166.7 58 1204.3 62 1242 64.2C1279.7 66.3 1317.3 66.7 1355 61.2C1392.7 55.7 1430.3 44.3 1468 44.5C1505.7 44.7 1543.3 56.3 1581 60.5C1618.7 64.7 1656.3 61.3 1694 57.5C1731.7 53.7 1769.3 49.3 1807 50.7C1844.7 52 1882.3 59 1901.2 62.5L1920 66L1920 0L1901.2 0C1882.3 0 1844.7 0 1807 0C1769.3 0 1731.7 0 1694 0C1656.3 0 1618.7 0 1581 0C1543.3 0 1505.7 0 1468 0C1430.3 0 1392.7 0 1355 0C1317.3 0 1279.7 0 1242 0C1204.3 0 1166.7 0 1129 0C1091.3 0 1053.7 0 1016.2 0C978.7 0 941.3 0 903.8 0C866.3 0 828.7 0 791 0C753.3 0 715.7 0 678 0C640.3 0 602.7 0 565 0C527.3 0 489.7 0 452 0C414.3 0 376.7 0 339 0C301.3 0 263.7 0 226 0C188.3 0 150.7 0 113 0C75.3 0 37.7 0 18.8 0L0 0Z" fill="#DB924B" stroke-linecap="round" stroke-linejoin="miter"></path></svg>