<svg id="visual" viewBox="0 0 1920 1080" width="1920" height="1080" xmlns="http://www.w3.org/2000/svg" xmlns:xlink="http://www.w3.org/1999/xlink" version="1.1"><path d="M0 47L18.8 46.5C37.7 46 75.3 45 113 49.2C150.7 53.3 188.3 62.7 226 65.3C263.7 68 301.3 64 339 59.2C376.7 54.3 414.3 48.7 452 46.3C489.7 44 527.3 45 565 43.2C602.7 41.3 640.3 36.7 678 36.8C715.7 37 753.3 42 791 44.3C828.7 46.7 866.3 46.3 903.8 46.8C941.3 47.3 978.7 48.7 1016.2 51.8C1053.7 55 1091.3 60 1129 59.8C1166.7 59.7 1204.3 54.3 1242 53.2C1279.7 52 1317.3 55 1355 57.2C1392.7 59.3 1430.3 60.7 1468 61.5C1505.7 62.3 1543.3 62.7 1581 62.5C1618.7 62.3 1656.3 61.7 1694 57.2C1731.7 52.7 1769.3 44.3 1807 46.2C1844.7 48 1882.3 60 1901.2 66L1920 72L1920 0L1901.2 0C1882.3 0 1844.7 0 1807 0C1769.3 0 1731.7 0 1694 0C1656.3 0 1618.7 0 1581 0C1543.3 0 1505.7 0 1468 0C1430.3 0 1392.7 0 1355 0C1317.3 0 1279.7 0 1242 0C1204.3 0 1166.7 0 1129 0C1091.3 0 1053.7 0 1016.2 0C978.7 0 941.3 0 903.8 0C866.3 0 828.7 0 791 0C753.3 0 715.7 0 678 0C640.3 0 602.7 0 565 0C527.3 0 489.7 0 452 0C414.3 0 376.7 0 339 0C301.3 0 263.7 0 226 0C188.3 0 150.7 0 113 0C75.3 0 37.7 0 18.8 0L0 0Z" fill="#DB924B" stroke-linecap="round" stroke-linejoin="miter"></path></svg>